<?xml version="1.0" encoding="utf-8"?>
<!-- Generator: Adobe Illustrator 23.1.1, SVG Export Plug-In . SVG Version: 6.00 Build 0)  -->
<svg version="1.1" id="Layer_1" xmlns="http://www.w3.org/2000/svg" xmlns:xlink="http://www.w3.org/1999/xlink" x="0px" y="0px"
	 viewBox="0 0 192.8 192.8" style="enable-background:new 0 0 192.8 192.8;" xml:space="preserve">
<style type="text/css">
	.st0{fill:none;}
	.st1{fill:none;stroke:#67B152;stroke-width:14;stroke-linecap:round;stroke-miterlimit:10;}
	.st2{fill:none;stroke:#67B152;stroke-width:14;stroke-linecap:round;stroke-miterlimit:10;stroke-dasharray:5.4696,19.1436;}
	.st3{fill:none;stroke:#67B152;stroke-width:16;stroke-linecap:round;stroke-miterlimit:10;}
	.st4{fill:#67B152;}
</style>
<g>
	<path class="st0" d="M58.4,167.6"/>
</g>
<g>
	<path class="st0" d="M24.8,99"/>
</g>
<g>
	<g>
		<path class="st1" d="M24.5,135.2c-0.4-0.9-0.7-1.9-1.1-2.8"/>
		<path class="st2" d="M19.2,113.8c-1.4-13.5,0.7-26.8,5.9-38.9C31.4,60,42.2,47.1,56.7,38.4"/>
		<path class="st1" d="M65.2,34c0.9-0.4,1.8-0.8,2.8-1.2"/>
	</g>
</g>
<g>
	<path class="st0" d="M-4.6,46.3"/>
</g>
<g>
	<g>
		<path class="st3" d="M124.7,30.8c2.2,0.8,4.4,1.8,6.5,2.8c19.5,9.5,33.3,25.9,39.8,44.9s5.9,40.4-3.6,59.9
			c-11.2,23.1-32.3,38.2-55.7,42.7c-16.1,3.1-33.2,1.2-49-6.5c-17.8-8.7-30.9-23.2-38-40.2"/>
		<g>
			<polygon class="st4" points="130.9,67.5 76.5,28.5 137.5,0.8 			"/>
		</g>
	</g>
</g>
<line class="st1" x1="101.7" y1="66.5" x2="101.7" y2="108.3"/>
<line class="st3" x1="58.9" y1="108.3" x2="100.7" y2="108.3"/>
</svg>
